<mxfile host="app.diagrams.net" agent="Mozilla/5.0 (Windows NT 10.0; Win64; x64) AppleWebKit/537.36 (KHTML, like Gecko) Chrome/129.0.0.0 Safari/537.36 Edg/129.0.0.0" version="24.7.17">
  <diagram name="Page-1" id="mnooa0jrYi80_91jrEG3">
    <mxGraphModel dx="734" dy="818" grid="1" gridSize="10" guides="1" tooltips="1" connect="1" arrows="1" fold="1" page="1" pageScale="1" pageWidth="850" pageHeight="1100" math="0" shadow="0">
      <root>
        <mxCell id="0" />
        <mxCell id="1" parent="0" />
        <mxCell id="AgogPdoNUcBU9XjqJ84P-1" value="Termék" style="rounded=0;whiteSpace=wrap;html=1;fillColor=#fad9d5;strokeColor=#ae4132;" vertex="1" parent="1">
          <mxGeometry x="120" y="300" width="120" height="60" as="geometry" />
        </mxCell>
        <mxCell id="AgogPdoNUcBU9XjqJ84P-2" value="Gyártó" style="rounded=0;whiteSpace=wrap;html=1;fillColor=#fad9d5;strokeColor=#ae4132;" vertex="1" parent="1">
          <mxGeometry x="600" y="300" width="120" height="60" as="geometry" />
        </mxCell>
        <mxCell id="AgogPdoNUcBU9XjqJ84P-3" value="T-GY" style="rhombus;whiteSpace=wrap;html=1;fillColor=#b0e3e6;strokeColor=#0e8088;" vertex="1" parent="1">
          <mxGeometry x="380" y="290" width="80" height="80" as="geometry" />
        </mxCell>
        <mxCell id="AgogPdoNUcBU9XjqJ84P-4" value="" style="endArrow=classic;html=1;rounded=0;exitX=1;exitY=0.5;exitDx=0;exitDy=0;entryX=0;entryY=0.5;entryDx=0;entryDy=0;" edge="1" parent="1" source="AgogPdoNUcBU9XjqJ84P-3" target="AgogPdoNUcBU9XjqJ84P-2">
          <mxGeometry width="50" height="50" relative="1" as="geometry">
            <mxPoint x="560" y="370" as="sourcePoint" />
            <mxPoint x="590" y="330" as="targetPoint" />
          </mxGeometry>
        </mxCell>
        <mxCell id="AgogPdoNUcBU9XjqJ84P-8" value="&lt;b&gt;tkód&lt;/b&gt;" style="ellipse;whiteSpace=wrap;html=1;fillColor=#d0cee2;strokeColor=#56517e;" vertex="1" parent="1">
          <mxGeometry y="380" width="110" height="50" as="geometry" />
        </mxCell>
        <mxCell id="AgogPdoNUcBU9XjqJ84P-15" value="" style="endArrow=classic;html=1;rounded=0;exitX=0;exitY=0.5;exitDx=0;exitDy=0;" edge="1" parent="1" source="AgogPdoNUcBU9XjqJ84P-3">
          <mxGeometry width="50" height="50" relative="1" as="geometry">
            <mxPoint x="250" y="370" as="sourcePoint" />
            <mxPoint x="240" y="330" as="targetPoint" />
          </mxGeometry>
        </mxCell>
        <mxCell id="AgogPdoNUcBU9XjqJ84P-16" value="" style="endArrow=classic;html=1;rounded=0;" edge="1" parent="1" source="AgogPdoNUcBU9XjqJ84P-3">
          <mxGeometry width="50" height="50" relative="1" as="geometry">
            <mxPoint x="230" y="370" as="sourcePoint" />
            <mxPoint x="250" y="330" as="targetPoint" />
          </mxGeometry>
        </mxCell>
        <mxCell id="AgogPdoNUcBU9XjqJ84P-17" value="név" style="ellipse;whiteSpace=wrap;html=1;fillColor=#d0cee2;strokeColor=#56517e;" vertex="1" parent="1">
          <mxGeometry x="240" y="380" width="110" height="50" as="geometry" />
        </mxCell>
        <mxCell id="AgogPdoNUcBU9XjqJ84P-18" value="ear" style="ellipse;whiteSpace=wrap;html=1;fillColor=#d0cee2;strokeColor=#56517e;" vertex="1" parent="1">
          <mxGeometry x="360" y="380" width="110" height="50" as="geometry" />
        </mxCell>
        <mxCell id="AgogPdoNUcBU9XjqJ84P-19" value="&lt;b&gt;adószám&lt;/b&gt;" style="ellipse;whiteSpace=wrap;html=1;fillColor=#d0cee2;strokeColor=#56517e;" vertex="1" parent="1">
          <mxGeometry x="480" y="380" width="110" height="50" as="geometry" />
        </mxCell>
        <mxCell id="AgogPdoNUcBU9XjqJ84P-20" value="név" style="ellipse;whiteSpace=wrap;html=1;fillColor=#d0cee2;strokeColor=#56517e;" vertex="1" parent="1">
          <mxGeometry x="605" y="380" width="110" height="50" as="geometry" />
        </mxCell>
        <mxCell id="AgogPdoNUcBU9XjqJ84P-21" value="telephely" style="ellipse;whiteSpace=wrap;html=1;fillColor=#d0cee2;strokeColor=#56517e;" vertex="1" parent="1">
          <mxGeometry x="730" y="380" width="110" height="50" as="geometry" />
        </mxCell>
        <mxCell id="AgogPdoNUcBU9XjqJ84P-23" value="" style="endArrow=none;html=1;rounded=0;entryX=0;entryY=0.75;entryDx=0;entryDy=0;" edge="1" parent="1" target="AgogPdoNUcBU9XjqJ84P-1">
          <mxGeometry width="50" height="50" relative="1" as="geometry">
            <mxPoint x="70" y="380" as="sourcePoint" />
            <mxPoint x="120" y="330" as="targetPoint" />
          </mxGeometry>
        </mxCell>
        <mxCell id="AgogPdoNUcBU9XjqJ84P-24" value="" style="endArrow=none;html=1;rounded=0;entryX=0.5;entryY=0;entryDx=0;entryDy=0;exitX=1;exitY=0.75;exitDx=0;exitDy=0;" edge="1" parent="1" source="AgogPdoNUcBU9XjqJ84P-2" target="AgogPdoNUcBU9XjqJ84P-21">
          <mxGeometry width="50" height="50" relative="1" as="geometry">
            <mxPoint x="720" y="330" as="sourcePoint" />
            <mxPoint x="810" y="380" as="targetPoint" />
          </mxGeometry>
        </mxCell>
        <mxCell id="AgogPdoNUcBU9XjqJ84P-25" value="" style="endArrow=none;html=1;rounded=0;exitX=0.5;exitY=0;exitDx=0;exitDy=0;entryX=0;entryY=0.75;entryDx=0;entryDy=0;" edge="1" parent="1" source="AgogPdoNUcBU9XjqJ84P-19" target="AgogPdoNUcBU9XjqJ84P-2">
          <mxGeometry width="50" height="50" relative="1" as="geometry">
            <mxPoint x="550" y="400" as="sourcePoint" />
            <mxPoint x="600" y="350" as="targetPoint" />
          </mxGeometry>
        </mxCell>
        <mxCell id="AgogPdoNUcBU9XjqJ84P-26" value="" style="endArrow=none;html=1;rounded=0;exitX=0.5;exitY=0;exitDx=0;exitDy=0;entryX=1;entryY=0.75;entryDx=0;entryDy=0;" edge="1" parent="1" source="AgogPdoNUcBU9XjqJ84P-18" target="AgogPdoNUcBU9XjqJ84P-1">
          <mxGeometry width="50" height="50" relative="1" as="geometry">
            <mxPoint x="210" y="400" as="sourcePoint" />
            <mxPoint x="260" y="350" as="targetPoint" />
          </mxGeometry>
        </mxCell>
        <mxCell id="AgogPdoNUcBU9XjqJ84P-27" value="" style="endArrow=none;html=1;rounded=0;" edge="1" parent="1" source="AgogPdoNUcBU9XjqJ84P-17">
          <mxGeometry width="50" height="50" relative="1" as="geometry">
            <mxPoint x="130" y="410" as="sourcePoint" />
            <mxPoint x="175" y="360" as="targetPoint" />
          </mxGeometry>
        </mxCell>
        <mxCell id="AgogPdoNUcBU9XjqJ84P-29" value="" style="endArrow=none;html=1;rounded=0;entryX=0.5;entryY=1;entryDx=0;entryDy=0;" edge="1" parent="1" source="AgogPdoNUcBU9XjqJ84P-20" target="AgogPdoNUcBU9XjqJ84P-2">
          <mxGeometry width="50" height="50" relative="1" as="geometry">
            <mxPoint x="620" y="410" as="sourcePoint" />
            <mxPoint x="670" y="360" as="targetPoint" />
          </mxGeometry>
        </mxCell>
        <mxCell id="AgogPdoNUcBU9XjqJ84P-32" value="postai cím" style="ellipse;whiteSpace=wrap;html=1;fillColor=#d0cee2;strokeColor=#56517e;" vertex="1" parent="1">
          <mxGeometry x="605" y="210" width="110" height="50" as="geometry" />
        </mxCell>
        <mxCell id="AgogPdoNUcBU9XjqJ84P-35" value="irányítószám" style="ellipse;whiteSpace=wrap;html=1;fillColor=#d0cee2;strokeColor=#56517e;" vertex="1" parent="1">
          <mxGeometry x="450" y="160" width="90" height="40" as="geometry" />
        </mxCell>
        <mxCell id="AgogPdoNUcBU9XjqJ84P-36" value="város" style="ellipse;whiteSpace=wrap;html=1;fillColor=#d0cee2;strokeColor=#56517e;" vertex="1" parent="1">
          <mxGeometry x="550" y="160" width="90" height="40" as="geometry" />
        </mxCell>
        <mxCell id="AgogPdoNUcBU9XjqJ84P-37" value="utca" style="ellipse;whiteSpace=wrap;html=1;fillColor=#d0cee2;strokeColor=#56517e;" vertex="1" parent="1">
          <mxGeometry x="650" y="160" width="90" height="40" as="geometry" />
        </mxCell>
        <mxCell id="AgogPdoNUcBU9XjqJ84P-38" value="házszám" style="ellipse;whiteSpace=wrap;html=1;fillColor=#d0cee2;strokeColor=#56517e;" vertex="1" parent="1">
          <mxGeometry x="750" y="160" width="90" height="40" as="geometry" />
        </mxCell>
        <mxCell id="AgogPdoNUcBU9XjqJ84P-39" value="" style="endArrow=none;html=1;rounded=0;exitX=0.5;exitY=1;exitDx=0;exitDy=0;entryX=0;entryY=0.5;entryDx=0;entryDy=0;" edge="1" parent="1" source="AgogPdoNUcBU9XjqJ84P-35" target="AgogPdoNUcBU9XjqJ84P-32">
          <mxGeometry width="50" height="50" relative="1" as="geometry">
            <mxPoint x="555" y="280" as="sourcePoint" />
            <mxPoint x="605" y="230" as="targetPoint" />
          </mxGeometry>
        </mxCell>
        <mxCell id="AgogPdoNUcBU9XjqJ84P-40" value="" style="endArrow=none;html=1;rounded=0;entryX=0.5;entryY=1;entryDx=0;entryDy=0;exitX=0;exitY=0;exitDx=0;exitDy=0;" edge="1" parent="1" source="AgogPdoNUcBU9XjqJ84P-32" target="AgogPdoNUcBU9XjqJ84P-36">
          <mxGeometry width="50" height="50" relative="1" as="geometry">
            <mxPoint x="637" y="210" as="sourcePoint" />
            <mxPoint x="680" y="180" as="targetPoint" />
          </mxGeometry>
        </mxCell>
        <mxCell id="AgogPdoNUcBU9XjqJ84P-41" value="" style="endArrow=none;html=1;rounded=0;exitX=0.767;exitY=0.088;exitDx=0;exitDy=0;exitPerimeter=0;entryX=0.715;entryY=0.938;entryDx=0;entryDy=0;entryPerimeter=0;" edge="1" parent="1" source="AgogPdoNUcBU9XjqJ84P-32" target="AgogPdoNUcBU9XjqJ84P-37">
          <mxGeometry width="50" height="50" relative="1" as="geometry">
            <mxPoint x="630" y="230" as="sourcePoint" />
            <mxPoint x="716" y="199" as="targetPoint" />
          </mxGeometry>
        </mxCell>
        <mxCell id="AgogPdoNUcBU9XjqJ84P-42" value="" style="endArrow=none;html=1;rounded=0;exitX=1;exitY=0.5;exitDx=0;exitDy=0;entryX=0.38;entryY=1.009;entryDx=0;entryDy=0;entryPerimeter=0;" edge="1" parent="1" source="AgogPdoNUcBU9XjqJ84P-32" target="AgogPdoNUcBU9XjqJ84P-38">
          <mxGeometry width="50" height="50" relative="1" as="geometry">
            <mxPoint x="690" y="280" as="sourcePoint" />
            <mxPoint x="740" y="230" as="targetPoint" />
          </mxGeometry>
        </mxCell>
        <mxCell id="AgogPdoNUcBU9XjqJ84P-44" value="" style="endArrow=none;html=1;rounded=0;exitX=0.5;exitY=0;exitDx=0;exitDy=0;" edge="1" parent="1" source="AgogPdoNUcBU9XjqJ84P-2">
          <mxGeometry width="50" height="50" relative="1" as="geometry">
            <mxPoint x="610" y="310" as="sourcePoint" />
            <mxPoint x="660" y="260" as="targetPoint" />
          </mxGeometry>
        </mxCell>
        <mxCell id="AgogPdoNUcBU9XjqJ84P-45" value="Alkatrész" style="rounded=0;whiteSpace=wrap;html=1;fillColor=#fad9d5;strokeColor=#ae4132;" vertex="1" parent="1">
          <mxGeometry x="60" y="570" width="120" height="60" as="geometry" />
        </mxCell>
        <mxCell id="AgogPdoNUcBU9XjqJ84P-47" style="edgeStyle=orthogonalEdgeStyle;rounded=0;orthogonalLoop=1;jettySize=auto;html=1;entryX=0;entryY=1;entryDx=0;entryDy=0;" edge="1" parent="1" source="AgogPdoNUcBU9XjqJ84P-46" target="AgogPdoNUcBU9XjqJ84P-1">
          <mxGeometry relative="1" as="geometry" />
        </mxCell>
        <mxCell id="AgogPdoNUcBU9XjqJ84P-46" value="T-A" style="rhombus;whiteSpace=wrap;html=1;fillColor=#b0e3e6;strokeColor=#0e8088;" vertex="1" parent="1">
          <mxGeometry x="80" y="460" width="80" height="80" as="geometry" />
        </mxCell>
        <mxCell id="AgogPdoNUcBU9XjqJ84P-48" value="" style="endArrow=classic;html=1;rounded=0;" edge="1" parent="1">
          <mxGeometry width="50" height="50" relative="1" as="geometry">
            <mxPoint x="120" y="460" as="sourcePoint" />
            <mxPoint x="120" y="370" as="targetPoint" />
          </mxGeometry>
        </mxCell>
        <mxCell id="AgogPdoNUcBU9XjqJ84P-49" value="" style="endArrow=classic;html=1;rounded=0;" edge="1" parent="1">
          <mxGeometry width="50" height="50" relative="1" as="geometry">
            <mxPoint x="120" y="540" as="sourcePoint" />
            <mxPoint x="120" y="570" as="targetPoint" />
          </mxGeometry>
        </mxCell>
        <mxCell id="AgogPdoNUcBU9XjqJ84P-50" value="" style="endArrow=classic;html=1;rounded=0;" edge="1" parent="1">
          <mxGeometry width="50" height="50" relative="1" as="geometry">
            <mxPoint x="120" y="540" as="sourcePoint" />
            <mxPoint x="120" y="560" as="targetPoint" />
          </mxGeometry>
        </mxCell>
        <mxCell id="AgogPdoNUcBU9XjqJ84P-52" value="név" style="ellipse;whiteSpace=wrap;html=1;fillColor=#d0cee2;strokeColor=#56517e;" vertex="1" parent="1">
          <mxGeometry x="130" y="650" width="110" height="50" as="geometry" />
        </mxCell>
        <mxCell id="AgogPdoNUcBU9XjqJ84P-53" value="akód" style="ellipse;whiteSpace=wrap;html=1;fillColor=#d0cee2;strokeColor=#56517e;fontStyle=1" vertex="1" parent="1">
          <mxGeometry y="650" width="110" height="50" as="geometry" />
        </mxCell>
        <mxCell id="AgogPdoNUcBU9XjqJ84P-54" value="egység_db" style="ellipse;whiteSpace=wrap;html=1;fillColor=#d0cee2;strokeColor=#56517e;perimeterSpacing=0;" vertex="1" parent="1">
          <mxGeometry x="120" y="380" width="110" height="50" as="geometry" />
        </mxCell>
        <mxCell id="AgogPdoNUcBU9XjqJ84P-56" value="" style="ellipse;whiteSpace=wrap;html=1;fillColor=none;" vertex="1" parent="1">
          <mxGeometry x="130" y="385" width="90" height="40" as="geometry" />
        </mxCell>
        <mxCell id="AgogPdoNUcBU9XjqJ84P-59" value="" style="endArrow=none;html=1;rounded=0;entryX=0.5;entryY=0;entryDx=0;entryDy=0;" edge="1" parent="1" target="AgogPdoNUcBU9XjqJ84P-52">
          <mxGeometry width="50" height="50" relative="1" as="geometry">
            <mxPoint x="140" y="630" as="sourcePoint" />
            <mxPoint x="190" y="580" as="targetPoint" />
          </mxGeometry>
        </mxCell>
        <mxCell id="AgogPdoNUcBU9XjqJ84P-60" value="" style="endArrow=none;html=1;rounded=0;exitX=0.5;exitY=0;exitDx=0;exitDy=0;" edge="1" parent="1" source="AgogPdoNUcBU9XjqJ84P-53">
          <mxGeometry width="50" height="50" relative="1" as="geometry">
            <mxPoint x="50" y="680" as="sourcePoint" />
            <mxPoint x="100" y="630" as="targetPoint" />
          </mxGeometry>
        </mxCell>
      </root>
    </mxGraphModel>
  </diagram>
</mxfile>
